PathFileType	4	(X/Y/Z)	RBDS016\RBDS016runT25.trc
DataRate	CameraRate	NumFrames	NumMarkers	Units	OrigDataRate	OrigDataStartFrame	OrigNumFrames
150.000000	150.000000	4	33	mm	150.000000	1125	4500
Frame#	Time	L.ASIS			L.Heel.Bottom			L.Heel.Lateral			L.Heel.Top			L.Iliac.Crest			L.MT1			L.MT5			L.PSIS			L.Shank.Bottom.Lateral			L.Shank.Bottom.Medial			L.Shank.Top.Lateral			L.Shank.Top.Medial			L.Thigh.Bottom.Lateral			L.Thigh.Bottom.Medial			L.Thigh.Top.Lateral			L.Thigh.Top.Medial			R.ASIS			R.ASY			R.Heel.Bottom			R.Heel.Lateral			R.Heel.Top			R.Iliac.Crest			R.MT1			R.MT5			R.PSIS			R.Shank.Bottom.Lateral			R.Shank.Bottom.Medial			R.Shank.Top.Lateral			R.Shank.Top.Medial			R.Thigh.Bottom.Lateral			R.Thigh.Bottom.Medial			R.Thigh.Top.Lateral			R.Thigh.Top.Medial			
		X1	Y1	Z1	X2	Y2	Z2	X3	Y3	Z3	X4	Y4	Z4	X5	Y5	Z5	X6	Y6	Z6	X7	Y7	Z7	X8	Y8	Z8	X9	Y9	Z9	X10	Y10	Z10	X11	Y11	Z11	X12	Y12	Z12	X13	Y13	Z13	X14	Y14	Z14	X15	Y15	Z15	X16	Y16	Z16	X17	Y17	Z17	X18	Y18	Z18	X19	Y19	Z19	X20	Y20	Z20	X21	Y21	Z21	X22	Y22	Z22	X23	Y23	Z23	X24	Y24	Z24	X25	Y25	Z25	X26	Y26	Z26	X27	Y27	Z27	X28	Y28	Z28	X29	Y29	Z29	X30	Y30	Z30	X31	Y31	Z31	X32	Y32	Z32	X33	Y33	Z33	

1126	7.500000000000001	2476.611628572764	861.347654680041	967.9260066660762	2014.731561295281	350.5996917871302	997.7443907826349	2042.539396294826	348.2029076053811	952.6280850429043	2062.661993796401	355.4809434624868	999.9746343982476	2393.608972961875	921.4959596322605	908.6896959810153	2105.623979637347	150.9451023934002	966.3536429443832	2087.197202095595	213.6201646539873	879.9826679285075	2279.36395594245	890.6065157951142	1023.196708831618	2165.591246432932	359.0506080660867	938.0196186651191	2162.215508964022	369.9046139174143	992.5282847437358	2238.655133484818	392.8425112629754	937.0201150506775	2236.851146186374	402.32656445102	989.8756456877493	2445.067880727463	496.6597394203745	911.5432467486073	2386.193665421995	489.4723311565791	954.1764861457831	2421.671646607664	602.9707355254911	897.0125016661635	2365.314670332388	595.7117141331391	937.8664682540532	2457.141126792098	887.7796168333916	1206.516970445418	2472.257797363685	76.13523883849057	1127.72438122525	2288.895963363451	30.59060482178242	1089.482902222756	2309.889043814429	53.85519325682707	1133.653594962282	2305.130036738825	80.37068547125081	1087.517412510135	2365.653274090878	935.7924290731761	1243.566549924035	2508.071177074155	46.19989863036229	1093.692272520439	2455.157395737179	36.77187455703118	1194.817647005472	2271.697114687422	896.4485436435323	1120.299262044805	2383.142178757171	147.2866021211054	1164.4563219407	2349.58559401526	168.6908933830202	1131.765707674354	2405.976745176645	225.7965343624571	1188.66486733278	2370.21359864753	244.0463516578731	1153.223932915629	2457.347628274056	530.4874729314545	1234.816098629962	2404.059837388677	515.2315925192968	1187.918675968313	2409.161889612113	627.9024808705635	1256.268562906606	2359.764650646796	613.4001223087226	1211.643062875995	
1127	7.506666666666667	2475.013755405227	860.9841219882899	967.8656091453248	2026.113967753928	345.7599410404706	995.1236288963931	2054.382896189564	343.0986691959557	950.3327168476053	2073.86574139628	351.9489491896701	997.7311852845745	2391.31481009091	921.669087479585	909.5907546335281	2121.870173263783	147.7072280556844	968.8636896789819	2102.935384305468	208.1833059373966	880.9230771605687	2277.934746864654	891.0589349953212	1024.311999392168	2177.979903470222	356.2235032812666	937.0348575121711	2173.995381576504	367.7445526501701	991.3613610796669	2250.607509901292	390.9571742724372	936.1237164348396	2248.222065129223	401.1258828275066	988.847533930793	2453.834732801542	498.033354565117	911.6978619751062	2395.048615057994	488.7934257671088	954.0049250931095	2427.000825546873	603.5332719975584	897.2465354789904	2370.631319199167	594.2747920487466	937.6652663380705	2456.415663133341	886.441512549182	1206.914133353237	2455.681963858441	76.32025436069922	1128.274797405181	2272.199042985329	30.92554237339258	1089.701636779977	2293.178996831023	54.15176000267071	1133.955959780563	2288.404588398324	80.75362629526977	1087.86385191218	2364.872797099133	935.395850160152	1243.914821302671	2491.251899872072	46.49516923418293	1094.261239548928	2438.300850334361	36.76979235256963	1195.228849993687	2270.737929799257	897.2417349723428	1121.259924276711	2368.081569963625	147.5684901748821	1164.863739582647	2335.125285792735	169.6625532087229	1132.046829331394	2392.677767776768	225.5209018311919	1189.020802883558	2357.322767642978	244.5326809290846	1153.532074230034	2449.752796727526	528.6147615300847	1235.281706247056	2396.649607960434	514.6665163619301	1187.744011691576	2403.573796742188	627.0451923768194	1256.315972819297	2354.32532070913	613.7528386896632	1211.06980136595	
1128	7.513333333333334	2473.453086593253	861.6106308427902	967.8079461194709	2037.587708984434	339.6430724738364	992.6831649834643	2066.309407025095	336.8262944361566	948.2158742942032	2085.080623983543	347.367336234509	995.621331094077	2389.36010069465	923.1666623373105	910.671635291753	2138.97840498033	143.8303474349854	971.6599844346259	2119.28285848158	201.9161259092734	882.142904850231	2276.703730157772	892.241682155979	1025.531207103779	2190.274851627248	352.7790781017096	936.0815896292129	2185.589714925618	365.0678922340621	990.1742975078295	2262.250605441738	388.8324147879405	935.1545742970179	2259.177493836055	399.8127946856722	987.7017950240898	2462.284671899585	500.2671418929793	911.8417321956056	2403.620484093101	489.0067797240366	953.7823666964164	2432.104755027499	604.8613333207912	897.4219805792646	2375.721593576398	593.6313286699567	937.3221384950568	2455.78418974569	885.7879576039626	1207.129144640561	2439.046057320889	76.38373520547471	1128.857644671314	2255.383933945595	31.2649967299459	1089.938801662934	2276.366377401364	54.43563358183522	1134.281519330898	2271.562047760242	81.14851747068057	1088.251260524826	2364.475432569475	935.9028578194535	1244.218749765047	2474.358206654947	46.65497220280152	1094.809286921742	2421.385657670754	36.61332327046951	1195.617444915883	2269.929079646728	898.6152477162838	1122.385123412548	2352.76633676298	147.8735412503767	1165.277035490781	2320.302768936268	170.538262704471	1132.374056123192	2378.840148302626	225.2972779296196	1189.406240359785	2343.797429649961	244.9501105548386	1153.91505940468	2441.329667721352	527.1907058201621	1235.71568924338	2388.346536570268	514.6699945739174	1187.63616948815	2397.523225165095	626.7412424560998	1256.342011159268	2348.364782250082	614.7769532332912	1210.55012782691	
1129	7.52	2471.990385213115	863.1615207060566	967.7802144714057	2049.177473938599	332.2105634118507	990.5204290111527	2078.338257857538	329.3878596081511	946.3677937986446	2096.309277540755	341.6811514885522	993.7326379067849	2387.812094952999	925.7466993559576	911.8410786135213	2156.938243958177	139.3894031801751	974.6466540243179	2136.241825845979	194.9452976746432	883.6084996333373	2275.676560160925	894.0531505470966	1026.768546506169	2202.452101431897	348.723862389696	935.2152540021432	2196.971567997919	361.8442874240667	989.0229368141305	2273.54094366854	386.4608208388191	934.1681728684254	2269.670062050632	398.3404974975442	986.4922602403177	2470.286172592747	503.3251614659688	911.9720285908109	2411.777015496108	490.1103537426736	953.5281903199581	2436.90242602807	606.9471921638451	897.5520865102341	2380.521923097321	593.8051066186929	936.8898665701761	2455.251545107594	885.8013277487647	1207.217869416204	2422.360970367183	76.34621494313417	1129.430264857451	2238.475715820873	31.65631053629565	1090.173589082456	2259.477241643438	54.75452349220345	1134.604656726732	2254.634591279526	81.59408868773859	1088.651867725101	2364.443016490559	937.2082562334912	1244.529059824037	2457.405425287513	46.7006584203622	1095.307473452182	2404.423740271641	36.34888877250323	1195.959232443729	2269.273032124947	900.4958967627786	1123.583204982694	2337.238540339839	148.2717160417548	1165.64669898427	2305.149969029191	171.3939702216542	1132.698412621681	2364.513716699149	225.2089248436824	1189.773360659977	2329.692733136271	245.3930668103393	1154.318756525189	2432.207939667326	526.2968253532296	1236.092384817355	2379.273066632826	515.2983900364676	1187.597073322107	2391.106200919549	627.0268905602057	1256.346835149268	2341.970098618123	616.4866482704151	1210.113019407109	
